<svg viewBox="0 0 120 120" xmlns="http://www.w3.org/2000/svg">
  <rect width="120" height="120" rx="24" fill="#ffffff" />
  <g fill="none" stroke="#1b4332" stroke-width="5" stroke-linecap="round">
    <path d="M52 40 C 44 24 34 16 22 12" />
    <path d="M68 40 C 76 24 86 16 98 12" />
  </g>
  <path fill="#1b4332" fill-rule="evenodd"
    d="M60 104 C 50 86 40 74 34 66 C 24 64 14 58 16 48 C 18 38 28 30 38 34 C 46 36 52 40 60 40 C 68 40 74 36 82 34 C 92 30 102 38 104 48 C 106 58 96 64 86 66 C 80 74 70 86 60 104 Z M32 48 m -5 0 a 5 5 0 1 0 10 0 a 5 5 0 1 0 -10 0 M88 48 m -5 0 a 5 5 0 1 0 10 0 a 5 5 0 1 0 -10 0" />
</svg>
